<?xml version="1.0" standalone="no"?>
<!DOCTYPE svg PUBLIC "-//W3C//DTD SVG 20010904//EN"
 "http://www.w3.org/TR/2001/REC-SVG-20010904/DTD/svg10.dtd">
<svg version="1.0" xmlns="http://www.w3.org/2000/svg"
 width="3333.000000pt" height="3333.000000pt" viewBox="0 0 3333.000000 3333.000000"
 preserveAspectRatio="xMidYMid meet">

<g transform="translate(0.000000,3333.000000) scale(0.100000,-0.100000)"
fill="#000000" stroke="none">
<path d="M1364 25750 c-351 -40 -648 -179 -897 -419 -131 -127 -218 -240 -291
-381 -122 -234 -176 -453 -176 -710 0 -388 135 -734 403 -1028 50 -56 3519
-3526 7707 -7710 6971 -6965 7623 -7613 7710 -7671 259 -171 534 -254 840
-255 164 0 248 10 396 50 187 49 360 133 521 252 130 96 15362 15329 15456
15457 80 109 174 287 216 412 51 150 72 263 78 433 6 172 -4 280 -42 430 -131
519 -533 937 -1042 1085 -154 44 -256 58 -428 58 -343 0 -643 -99 -912 -302
-49 -37 -2718 -2700 -7153 -7135 -3891 -3892 -7077 -7075 -7081 -7074 -3 2
-3192 3186 -7085 7076 -4397 4394 -7108 7096 -7157 7133 -193 146 -414 241
-657 284 -105 19 -311 26 -406 15z"/>
</g>
</svg>
